<svg id="Layer_1" data-name="Layer 1" xmlns="http://www.w3.org/2000/svg" viewBox="0 0 135 88.98"><defs><style>.cls-1,.cls-5,.cls-6{fill:#fff;}.cls-1,.cls-2,.cls-3,.cls-6{fill-rule:evenodd;}.cls-2,.cls-4{fill:#105ea7;}.cls-3{fill:#f9f923;}.cls-6{stroke:#232220;stroke-miterlimit:10;}</style></defs><title>ECF_logo</title><polyline class="cls-1" points="18.41 17.89 17.9 62.51 65.58 62.51 77.02 60 76.15 51.14 72.72 43.13 69.66 33.07 64.97 25.12 47.86 18.78 19.05 17.89"/><polygon class="cls-2" points="127.89 32.21 127.89 32.21 127.89 24.52 101.13 24.52 101.13 60 112.32 60 112.32 47.3 107.3 42.26 112.32 37.52 112.32 32.21 127.89 32.21"/><polygon class="cls-2" points="120.82 46.1 120.82 46.1 120.82 38.42 113.48 38.42 113.48 46.1 120.82 46.1"/><polygon class="cls-2" points="66.15 41.38 66.15 41.38 66.75 45.23 67.92 48.47 70.27 50.84 71.73 51.41 73.5 51.41 76.15 51.13 74.39 44.33 72.33 38.72 69.68 33.1 68.81 33.68 67.32 35.74 66.45 38.12 66.15 41.38"/><polygon class="cls-2" points="89.97 50.24 89.97 50.24 80.57 45.8 79.38 48.47 77.91 49.94 76.15 51.14 77.02 60 82.03 58.52 84.38 57.05 86.45 55.28 88.5 52.91 89.97 50.24"/><polygon class="cls-2" points="73.48 31.87 73.48 31.87 76.43 32.47 78.49 33.95 79.66 35.71 80.55 37.48 89.95 33.07 87 28.93 84.07 26.26 80.55 24.49 77 23.59 73.18 23.32 68.79 23.59 64.95 25.09 69.66 33.07 71.13 32.17 73.48 31.87"/><polyline class="cls-2" points="73.2 60.29 73.2 60.29 68.81 60 64.97 58.82 62.04 57.05 59.38 54.68 57.62 51.71 56.16 48.77 55.56 45.5 55.26 42.26 55.86 36.94 57.62 32.21 60.57 28.06 64.97 25.12 60.87 19.78 56.16 14.77 51.45 10.63 46.16 7.08 40.88 4.12 35.57 1.75 29.99 0.57 24.71 0 21.18 0.3 17.64 0.88 14.71 2.05 11.76 3.52 9.13 5.31 6.77 7.66 3.25 12.99 0.89 19.48 0 27.19 0.3 35.45 2.35 44.33 5.88 53.49 10.59 61.77 16.17 69.18 22.64 75.96 29.69 81.3 37.06 85.42 44.4 88.09 48.22 88.68 52.04 88.98 57.62 88.38 62.34 86.61 66.75 84.24 70.27 80.7 73.2 76.56 75.26 71.52 76.45 66.21 77.02 60 73.2 60.29 47.33 32.5 31.75 32.5 31.75 39.32 25 39.32 25 47 31.75 47 31.75 52.31 47.33 52.31 47.33 60 20.59 60 20.59 24.52 47.33 24.52 47.33 32.5 73.2 60.29 38.82 43.15 33.81 48.47 33.81 38.12 38.82 43.15"/><polygon class="cls-3" points="90.69 71.38 86.76 68.5 91.45 68.5 92.89 63.75 94.36 68.5 99.35 68.5 95.4 71.39 96.87 75.78 92.91 72.89 89.21 75.88 90.69 71.38"/><path class="cls-4" d="M96.08,66.19,97.28,70h4.11l-3.24,2.37L99.34,76l-3.26-2.37L93.16,76l1.17-3.54L91.1,70h3.82l1.16-3.85m0-2.55L95.36,66l-1,3.31H88.81l1.85,1.35,2.78,2-1,3-.8,2.43,2-1.61,2.48-2,2.78,2,1.9,1.38-.74-2.23-1-3,2.8-2,1.86-1.35H97.83L96.8,66l-.73-2.33Z" transform="translate(-3.19 -1.16)"/><polygon class="cls-3" points="57.91 72.89 53.97 75.78 55.42 71.39 51.49 68.5 56.48 68.5 57.92 63.74 59.36 68.5 64.04 68.5 60.13 71.38 61.63 75.88 57.91 72.89"/><path class="cls-4" d="M61.11,66.19,62.28,70h3.81l-3.22,2.37L64.06,76l-3-2.37L57.89,76l1.16-3.54L55.82,70H60l1.16-3.85m0-2.58L60.39,66l-1,3.31H53.53l1.85,1.35,2.79,2-1,3-.73,2.23,1.89-1.39,2.76-2,2.5,2,2,1.6-.81-2.42-1-3,2.78-2,1.84-1.35H62.83l-1-3.31-.72-2.37Z" transform="translate(-3.19 -1.16)"/><polygon class="cls-3" points="125.39 71.37 121.82 68.5 126.43 68.5 127.9 63.75 129.34 68.5 133.94 68.5 130.4 71.37 131.84 75.78 127.89 72.88 123.91 75.78 125.39 71.37"/><path class="cls-4" d="M131.09,66.19,132.25,70h3.82l-2.92,2.37L134.31,76l-3.22-2.37L127.83,76,129,72.41l-3-2.37h3.83l1.19-3.85m0-2.55L130.37,66l-1,3.32h-5.4l1.67,1.33,2.53,2-1,3-.75,2.23,1.9-1.38,2.81-2,2.79,2,1.89,1.39L135,75.71l-1-3,2.52-2,1.65-1.33h-5.38l-1-3.31-.71-2.34Z" transform="translate(-3.19 -1.16)"/><polygon class="cls-5" points="55.6 40.49 57.63 51.5 58.77 53.43 71.97 60 74.28 60 55.76 37.66 55.6 40.49"/><path class="cls-6" d="M128.93,72.67" transform="translate(-3.19 -1.16)"/></svg>