<?xml version="1.0" standalone="no"?>
<!DOCTYPE svg PUBLIC "-//W3C//DTD SVG 20010904//EN"
 "http://www.w3.org/TR/2001/REC-SVG-20010904/DTD/svg10.dtd">
<svg version="1.0" xmlns="http://www.w3.org/2000/svg"
 width="1080.000000pt" height="1080.000000pt" viewBox="0 0 1080.000000 1080.000000"
 preserveAspectRatio="xMidYMid meet">
<metadata>
Created by potrace 1.11, written by Peter Selinger 2001-2013
</metadata>
<g transform="translate(0.000000,1080.000000) scale(0.100000,-0.100000)"
fill="#000000" stroke="none">
<path d="M1888 8955 c-2 -2 -42 -6 -90 -10 -49 -3 -97 -8 -109 -10 -12 -2 -42
-7 -67 -10 -26 -3 -54 -7 -62 -9 -21 -6 -92 -18 -110 -18 -26 -1 -285 -106
-381 -155 -52 -26 -96 -48 -99 -48 -6 -1 -62 -37 -70 -45 -3 -3 -13 -9 -22
-15 -138 -81 -313 -250 -404 -390 -33 -49 -62 -94 -67 -100 -4 -5 -26 -39 -48
-75 -23 -36 -45 -66 -50 -68 -5 -2 -9 -8 -9 -14 0 -5 -9 -23 -20 -39 -12 -15
-30 -54 -40 -86 -11 -32 -24 -67 -29 -78 -9 -19 -55 -145 -57 -155 0 -3 -4
-14 -9 -25 -17 -43 -47 -120 -45 -120 1 0 -4 -13 -10 -30 -12 -31 -25 -101
-35 -195 -3 -30 -8 -72 -10 -92 -3 -21 -7 -55 -10 -75 -2 -21 -7 -63 -10 -93
-4 -30 -10 -82 -15 -115 -13 -92 8 -787 24 -814 4 -5 10 -29 15 -53 5 -24 12
-54 16 -68 3 -14 7 -34 9 -46 2 -11 5 -25 8 -30 4 -5 9 -27 12 -49 4 -22 11
-56 16 -76 6 -21 14 -57 19 -80 6 -24 17 -73 25 -109 9 -36 18 -74 19 -85 7
-37 74 -225 107 -300 5 -11 34 -87 65 -170 32 -82 63 -163 70 -180 7 -16 23
-56 34 -87 11 -32 31 -75 44 -95 12 -21 31 -56 42 -78 11 -22 23 -41 28 -43 4
-2 7 -8 7 -13 0 -5 11 -26 23 -47 13 -20 35 -57 49 -82 144 -259 213 -372 286
-470 47 -63 88 -117 92 -120 3 -3 17 -21 30 -40 13 -19 27 -37 30 -40 4 -3 11
-12 16 -21 5 -9 21 -32 36 -50 15 -19 58 -76 97 -128 39 -51 142 -168 229
-260 88 -91 202 -210 253 -265 52 -54 148 -139 214 -189 66 -50 125 -95 130
-99 6 -4 26 -20 45 -36 89 -71 300 -222 345 -247 28 -14 64 -34 80 -44 45 -26
144 -81 190 -105 22 -12 42 -23 45 -26 22 -22 280 -150 304 -150 11 0 30 -7
40 -15 11 -8 29 -15 41 -15 12 0 25 -4 30 -9 12 -10 221 -84 231 -81 4 1 10
-3 14 -10 4 -6 17 -12 28 -13 12 -1 22 -5 22 -10 0 -4 3 -6 7 -4 5 3 19 0 33
-6 31 -13 35 -13 90 -21 25 -4 52 -9 60 -11 8 -3 34 -7 58 -10 24 -3 53 -7 65
-10 46 -11 283 -30 367 -29 59 0 168 8 252 20 18 2 60 6 93 9 33 2 73 7 90 11
39 8 147 45 161 55 6 5 19 10 30 12 20 4 42 12 89 32 17 7 46 18 65 24 35 11
59 23 220 109 41 22 100 53 129 68 58 30 333 296 368 354 9 16 21 30 25 30 4
0 8 6 8 13 0 8 9 22 20 32 11 10 20 24 20 32 0 7 4 13 8 13 5 0 24 24 42 53
19 28 42 60 52 71 21 23 43 69 107 227 17 42 36 90 42 105 7 16 13 31 14 34 1
3 9 23 19 45 10 22 19 51 21 65 2 14 11 52 20 85 8 33 18 74 20 90 3 17 14 66
25 110 24 100 28 123 35 210 3 39 8 93 11 120 13 136 17 194 18 237 1 44 3 48
31 55 17 4 33 8 38 9 4 1 9 3 12 4 3 1 8 3 13 4 28 8 130 38 142 43 8 3 23 8
33 10 55 10 156 49 192 74 24 16 48 29 54 29 6 0 11 3 11 8 0 4 16 16 36 27
21 11 50 32 65 46 23 22 105 91 128 109 6 5 37 40 126 145 46 53 154 236 154
260 0 10 -108 65 -169 86 -16 6 -30 16 -30 22 0 6 -3 8 -6 4 -3 -3 -27 5 -52
18 -26 13 -83 40 -127 60 -44 21 -140 67 -214 101 -73 35 -137 64 -141 64 -4
0 -25 -39 -45 -87 -48 -111 -58 -126 -125 -191 -50 -48 -133 -112 -146 -112
-3 0 -13 -7 -22 -16 -14 -15 -16 -14 -24 6 -11 29 -108 404 -115 444 -3 16
-23 77 -43 135 -21 58 -48 133 -59 166 -12 33 -26 69 -30 80 -15 33 -24 59
-28 79 -2 11 -8 25 -14 33 -6 7 -9 13 -6 13 3 0 -16 45 -44 100 -27 55 -49
102 -49 104 0 2 -27 61 -60 130 -33 70 -60 133 -60 141 0 7 10 17 22 21 13 4
39 17 58 29 35 23 109 37 205 38 46 0 63 -2 135 -17 32 -7 93 -20 100 -21 13
-1 70 -40 70 -47 0 -4 5 -8 11 -8 17 0 119 -81 119 -95 0 -3 11 -21 25 -39 14
-18 25 -38 25 -44 0 -7 4 -12 9 -12 5 0 18 -22 30 -49 11 -28 26 -53 31 -56 6
-4 8 -10 5 -15 -3 -4 2 -13 10 -20 17 -14 34 -9 200 70 61 29 146 70 190 90
44 21 121 57 170 80 50 24 114 53 143 66 28 13 52 26 52 29 0 6 -23 39 -149
219 -59 85 -119 148 -244 260 -60 53 -108 84 -222 141 -80 40 -145 71 -145 70
0 -2 -21 3 -47 11 -26 8 -57 16 -68 19 -11 2 -49 11 -84 20 -72 17 -104 21
-251 31 -126 8 -116 8 -265 0 -173 -10 -200 -13 -242 -27 -21 -7 -40 -14 -43
-14 -3 -1 -14 -6 -25 -10 -11 -5 -62 -25 -113 -46 l-93 -37 -52 67 c-29 36
-68 86 -87 111 -19 25 -37 47 -40 50 -3 3 -17 21 -30 40 -14 19 -30 42 -37 50
-6 8 -33 42 -60 75 -26 33 -80 94 -119 135 -39 41 -107 113 -150 159 -130 138
-139 148 -320 306 -6 6 -44 39 -83 74 -89 79 -156 131 -170 131 -6 0 -11 5
-11 10 0 6 -6 10 -14 10 -8 0 -16 4 -18 8 -1 5 -37 30 -78 57 -41 27 -76 52
-78 57 -2 4 -8 8 -14 8 -5 0 -24 11 -42 25 -18 14 -38 25 -44 25 -6 0 -15 6
-19 13 -8 13 -49 38 -163 99 -30 16 -59 33 -65 37 -9 8 -58 35 -165 93 -19 10
-42 23 -50 28 -8 5 -37 19 -65 31 -27 12 -87 39 -132 60 -46 22 -85 39 -88 39
-3 0 -40 16 -82 36 -43 20 -87 37 -98 39 -16 3 -226 46 -285 60 -54 12 -167
33 -180 33 -8 0 -26 3 -40 5 -14 3 -59 8 -100 11 -41 3 -86 9 -100 11 -28 6
-227 14 -232 10z"/>
<path d="M8090 5579 c0 -1120 3 -1419 13 -1420 87 -4 147 -2 147 4 0 5 5 5 11
1 14 -8 110 -11 115 -3 3 5 49 4 49 -1 0 -1 33 -2 73 -3 39 -1 72 2 72 6 0 5
5 5 11 1 14 -8 110 -11 115 -3 3 5 49 4 49 -1 0 -1 33 -2 73 -3 39 -1 72 2 72
6 0 4 8 4 18 -1 9 -4 31 -6 47 -3 l31 6 -1 505 0 505 -195 197 c-107 109 -197
200 -199 203 -4 5 49 57 266 262 l129 121 -1 211 c0 204 1 211 20 212 11 0
291 1 623 1 l602 1 0 307 0 307 -1070 1 -1070 0 0 -1419z"/>
<path d="M9080 5870 c-12 -23 -12 -23 -1 -51 5 -15 7 -30 4 -33 -9 -8 -8 -291
1 -304 3 -6 3 -13 -1 -15 -7 -4 -8 -83 -4 -179 1 -16 25 -17 291 -17 160 0
291 3 291 7 4 19 6 579 3 592 -4 14 -41 16 -290 16 -247 0 -287 -2 -294 -16z"/>
<path d="M7426 3940 c-3 -8 -33 -105 -66 -215 -33 -109 -65 -204 -70 -209 -6
-6 -95 -10 -220 -10 -189 1 -235 -4 -197 -19 13 -5 275 -194 319 -230 l27 -22
-69 -209 c-39 -115 -69 -211 -67 -212 2 -2 16 8 32 22 17 14 45 38 64 52 19
15 77 62 130 105 52 43 103 83 113 88 18 10 39 -4 255 -163 51 -37 97 -68 102
-68 5 0 11 -5 13 -12 3 -7 7 -8 10 -2 4 5 -2 26 -12 47 -10 20 -17 37 -16 37
2 0 -21 71 -50 158 l-53 157 22 20 c34 31 196 145 206 145 5 0 11 4 13 8 2 5
30 28 63 53 l60 44 -231 3 -232 2 -9 28 c-6 15 -15 43 -21 62 -8 27 -90 293
-107 345 -1 6 -5 3 -9 -5z"/>
<path d="M10201 3868 c-13 -46 -38 -132 -57 -193 -18 -60 -36 -122 -39 -137
-4 -14 -14 -28 -23 -30 -10 -2 -107 -3 -216 -2 l-199 1 30 -26 c62 -54 83 -71
89 -71 4 0 12 -6 18 -14 6 -7 52 -45 103 -85 l91 -71 -69 -207 c-38 -114 -69
-209 -69 -211 0 -1 6 2 13 8 6 6 30 24 52 40 22 16 45 34 52 40 7 5 16 10 22
10 5 0 12 7 15 16 3 8 10 12 16 9 5 -3 10 -2 10 4 0 5 17 20 38 32 20 13 39
25 42 28 3 4 31 23 62 44 l57 39 58 -44 c32 -24 60 -46 61 -50 2 -5 9 -8 15
-8 7 0 24 -11 39 -25 15 -14 31 -25 35 -25 4 0 22 -12 38 -26 34 -30 111 -84
119 -84 3 0 -4 21 -15 47 -11 26 -40 108 -65 182 -24 75 -49 144 -54 153 -8
15 16 38 155 150 91 72 163 134 160 136 -2 2 -96 4 -209 4 l-204 -1 -10 27
c-12 32 -54 163 -56 177 -1 6 -5 16 -9 23 -5 6 -6 12 -3 12 3 0 0 17 -8 38
-22 59 -50 156 -48 165 1 4 -2 7 -6 7 -5 0 -19 -37 -31 -82z"/>
</g>
</svg>
